******************************************************************************************************************** 
Avatar.2009.TS.ENG.DVDR-IMAGiNE
********************************************************************************************************************
Source..........Avatar TS XVID Subbed V2 - IMAGiNE
Ripper ...........: IMAGiNE IMDB Rating.......:8.9/10 
Video Codec.......: MPEG2 Release Date......:22/12/09
Audio Codec.......:AC3 Theatre Date......:17/12/09
Audio Bitrate.....:192 Runtime.......:2h 33mn
Subtitles.........:ENG Language..........:ENGLISH
Resolution...... 720 x 304 IMDb URL..........:http://www.imdb.com/title/tt0499549/


DETAILS:

Video
ID : 0
Format : MPEG-4 Visual
Format profile : Advanced Simple@L5
Format settings, BVOP : Yes
Format settings, QPel : No
Format settings, GMC : No warppoints
Format settings, Matrix : Default (MPEG)
Muxing mode : Packed bitstream
Codec ID : XVID
Codec ID/Hint : XviD
Duration : 2h 33mn
Bit rate : 1 770 Kbps
Width : 720 pixels
Height : 304 pixels
Display aspect ratio : 2.35
Frame rate : 25.000 fps
Resolution : 24 bits
Colorimetry : 4:2:0
Scan type : Progressive
Bits/(Pixel*Frame) : 0.324
Stream size : 1.90 GiB (92%)
Writing library : XviD 1.2.1 (UTC 2008-12-04)

Audio
ID : 1
Format : MPEG Audio
Format version : Version 1
Format profile : Layer 3
Codec ID : 55
Codec ID/Hint : MP3
Duration : 2h 33mn
Bit rate mode : Constant
Bit rate : 128 Kbps
Channel(s) : 2 channels
Sampling rate : 44.1 KHz
Resolution : 16 bits
Stream size : 141 MiB (7%)
Alignment : Aligned on interleaves
Interleave, duration : 26 ms (0.65 video frame)
Interleave, preload duration : 522 ms


NOTES:

IMAGiNE bringing you another release.....
We found some subs for the non english parts that were made by birdflu (thanks) have noticed some of the subs are missing but
most are translated.
Worked done....normally stuff increasing contrast,colours,sharpening,noise reduction and hardcoding subs.
Audio is the same as before supplied by mindfuck (thanks) but filtered slightly different to last time.

On another note......yes we ALL know seeing this in 3D is awesome,however we don't need to be told a 1000x .....this is a torrent
site,try commenting on the actual release good or bad,other users would find that much more helpful.
Right off to IMAX to watch this in 3D.
